<?xml version="1.0" encoding="UTF-8"?>
<svg width="160px" height="164px" viewBox="0 0 160 164" version="1.1" xmlns="http://www.w3.org/2000/svg" xmlns:xlink="http://www.w3.org/1999/xlink">
    <!-- Generator: Sketch 52.3 (67297) - http://www.bohemiancoding.com/sketch -->
    <title>bot-15</title>
    <desc>Created with Sketch.</desc>
    <defs>
        <path d="M152,19 L154.87223,19 C156.655267,19 157.30184,19.1856512 157.953691,19.5342654 C158.605543,19.8828796 159.11712,20.3944567 159.465735,21.0463086 C159.814349,21.6981604 160,22.3447329 160,24.1277704 L160,45.8722296 C160,47.6552671 159.814349,48.3018396 159.465735,48.9536914 C159.11712,49.6055433 158.605543,50.1171204 157.953691,50.4657346 C157.30184,50.8143488 156.655267,51 154.87223,51 L129.12777,51 C127.344733,51 126.69816,50.8143488 126.046309,50.4657346 C125.394457,50.1171204 124.88288,49.6055433 124.534265,48.9536914 C124.185651,48.3018396 124,47.6552671 124,45.8722296 L124,24.1277704 C124,22.3447329 124.185651,21.6981604 124.534265,21.0463086 C124.88288,20.3944567 125.394457,19.8828796 126.046309,19.5342654 C126.69816,19.1856512 127.344733,19 129.12777,19 L150,19 L150,0 L152,0 L152,19 Z M5.1277704,19 L30.8722296,19 C32.6552671,19 33.3018396,19.1856512 33.9536914,19.5342654 C34.6055433,19.8828796 35.1171204,20.3944567 35.4657346,21.0463086 C35.8143488,21.6981604 36,22.3447329 36,24.1277704 L36,45.8722296 C36,47.6552671 35.8143488,48.3018396 35.4657346,48.9536914 C35.1171204,49.6055433 34.6055433,50.1171204 33.9536914,50.4657346 C33.3018396,50.8143488 32.6552671,51 30.8722296,51 L5.1277704,51 C3.34473292,51 2.69816044,50.8143488 2.04630859,50.4657346 C1.39445674,50.1171204 0.882879593,49.6055433 0.534265408,48.9536914 C0.185651222,48.3018396 8.02470732e-17,47.6552671 -1.38112041e-16,45.8722296 L1.38112041e-16,24.1277704 C-8.02470732e-17,22.3447329 0.185651222,21.6981604 0.534265408,21.0463086 C0.882879593,20.3944567 1.39445674,19.8828796 2.04630859,19.5342654 C2.69816044,19.1856512 3.34473292,19 5.1277704,19 Z" id="path-1"></path>
        <path d="M47.9411255,31.5810711 C46.4603547,30.7251846 45.0658376,29.6638174 43.7989899,28.3969696 C35.988504,20.5864838 35.988504,7.92318421 43.7989899,0.112698372 L57.2340187,13.5477272 L63.6870876,7.09465837 C62.7811534,5.56075283 62.987153,3.55195222 64.3050865,2.23401872 C65.8671837,0.671921549 68.3998436,0.671921549 69.9619408,2.23401872 C71.5240379,3.79611588 71.5240379,6.3287758 69.9619408,7.89087297 C68.6440073,9.20880647 66.6352067,9.41480612 65.1013011,8.50887193 L58.6482323,14.9619408 L72.0832611,28.3969696 C66.6329618,33.8472689 58.8195836,35.4942501 51.9411255,33.3379131 L51.9411255,52.1126984 L47.9411255,52.1126984 L47.9411255,31.5810711 Z" id="path-3"></path>
        <path d="M66,0 C124.351567,0 130.000727,40.6854074 130,78 C129.999351,111.314593 104.534073,120 66,120 C28.5386545,120 2.20992466e-15,111.314593 0,78 C0,40.6854074 7.64843282,6.59631323e-15 66,0 Z" id="path-5"></path>
        <path d="M82.8310869,34 C78.274254,34.204594 75.2818899,35.6397034 73.8539945,38.3053279 C72.6354507,40.5801306 70.2641433,41.9999868 67.6835279,41.9999882 L52,42 L36.9013298,41.9999891 C34.0681565,41.9999875 31.4462964,40.5014832 30.0083339,38.0603493 C28.5305922,35.551685 25.5841186,34.1982352 21.1689131,34 L8,34 C3.581722,34 5.41083001e-16,30.418278 0,26 L0,8 C-5.41083001e-16,3.581722 3.581722,8.11624501e-16 8,0 L96,0 C100.418278,-8.11624501e-16 104,3.581722 104,8 L104,26 C104,30.418278 100.418278,34 96,34 L82.8310869,34 Z" id="path-7"></path>
    </defs>
    <g id="Page-1" stroke="none" stroke-width="1" fill="none" fill-rule="evenodd">
        <g id="Bottt/Head" transform="translate(-10.000000, 0.000000)">
            <g id="Sides/Antenna-02" transform="translate(0.000000, 66.000000)" fill-rule="evenodd" stroke-width="1">
                <g id="Ears" transform="translate(10.000000, 9.000000)">
                    <mask id="mask-2" fill="white">
                        <use xlink:href="#path-1"></use>
                    </mask>
                    <use fill="#0076DE" xlink:href="#path-1"></use>
                    <g id="Color/05-Indigo/900" mask="url(#mask-2)" fill="#1A237E">
                        <g transform="translate(-10.000000, -9.000000)">
                            <rect x="0" y="0" width="180" height="76"></rect>
                        </g>
                    </g>
                    <rect id="Shadow" fill-opacity="0.1" fill="#000000" mask="url(#mask-2)" x="-10" y="29" width="180" height="38"></rect>
                </g>
                <g id="Antenna" transform="translate(157.000000, 1.000000)">
                    <rect fill-opacity="0.4" fill="#FFFFFF" x="3" y="7" width="2" height="20"></rect>
                    <circle id="Beep-Boop" fill="#E1E6E8" cx="4" cy="4" r="4"></circle>
                    <circle id="Beep-Boop" fill="#FFFFFF" cx="5" cy="3" r="2"></circle>
                </g>
            </g>
            <g id="Top/Radar" transform="translate(41.000000, 0.000000)">
                <mask id="mask-4" fill="white">
                    <use xlink:href="#path-3"></use>
                </mask>
                <use id="Radar" fill="#E1E6E8" fill-rule="evenodd" xlink:href="#path-3"></use>
                <g id="Color/05-Indigo/900" mask="url(#mask-4)" fill="#1A237E" fill-rule="evenodd">
                    <rect x="0" y="0" width="100" height="52"></rect>
                </g>
                <path d="M30.8700577,11.3259018 C30.8700577,22.3715968 39.8243627,31.3259018 50.8700577,31.3259018 C61.9157527,31.3259018 70.8700577,22.3715968 70.8700577,11.3259018" id="Dish" fill-opacity="0.2" fill="#FFFFFF" fill-rule="evenodd" mask="url(#mask-4)"></path>
                <circle id="Searching..." fill-opacity="0.8" fill="#FFFFFF" fill-rule="evenodd" mask="url(#mask-4)" cx="67.1335137" cy="5.06244584" r="5.65685425"></circle>
            </g>
            <g id="Face/Round-01" transform="translate(25.000000, 44.000000)">
                <mask id="mask-6" fill="white">
                    <use xlink:href="#path-5"></use>
                </mask>
                <use id="Path-2" fill-opacity="0.8" fill="#000000" fill-rule="evenodd" xlink:href="#path-5"></use>
                <g id="Color/18-Grey/200" mask="url(#mask-6)" fill="#EEEEEE" fill-rule="evenodd">
                    <g transform="translate(-4.000000, -2.000000)">
                        <rect x="0" y="0" width="138" height="124"></rect>
                    </g>
                </g>
            </g>
            <g id="Mouth/Bite" transform="translate(52.000000, 124.000000)" fill-rule="evenodd">
                <rect id="Kiss-The-Robot-Beep-Boop" fill-opacity="0.2" fill="#000000" x="4" y="5" width="68" height="22" rx="5"></rect>
                <path d="M10,9 L66,9 C67.1045695,9 68,9.8954305 68,11 L68,21 C68,22.1045695 67.1045695,23 66,23 L10,23 C8.8954305,23 8,22.1045695 8,21 L8,11 C8,9.8954305 8.8954305,9 10,9 Z" id="Kiss-The-Robot-Beep-Boop" fill-opacity="0.6" fill="#000000"></path>
                <polygon id="Triangle-2" fill="#E1E6E8" transform="translate(20.000000, 13.000000) scale(1, -1) translate(-20.000000, -13.000000) " points="20 9 26 17 14 17"></polygon>
                <polygon id="Triangle-2" fill="#E1E6E8" transform="translate(32.000000, 13.000000) scale(1, -1) translate(-32.000000, -13.000000) " points="32 9 38 17 26 17"></polygon>
                <polygon id="Triangle-2" fill="#E1E6E8" transform="translate(44.000000, 13.000000) scale(1, -1) translate(-44.000000, -13.000000) " points="44 9 50 17 38 17"></polygon>
                <polygon id="Triangle-2" fill="#E1E6E8" transform="translate(56.000000, 13.000000) scale(1, -1) translate(-56.000000, -13.000000) " points="56 9 62 17 50 17"></polygon>
            </g>
            <g id="Eyes/Shade-01-🕶" transform="translate(38.000000, 76.000000)" fill-rule="evenodd" stroke-width="1">
                <g id="Shades" transform="translate(0.000000, 2.000000)">
                    <mask id="mask-8" fill="white">
                        <use xlink:href="#path-7"></use>
                    </mask>
                    <use id="Container" fill-opacity="0.8" fill="#000000" xlink:href="#path-7"></use>
                    <path d="M74.8310869,24 C70.2742542,24.204594 67.2818901,25.6397032 65.8539947,28.3053276 C64.6854389,30.4868112 62.4567598,31.8820547 60,31.9928601 L60,32 L44.9013298,31.9999891 C42.0681565,31.9999875 39.4462964,30.5014832 38.0083339,28.0603493 C36.5305922,25.551685 33.5841186,24.1982352 29.1689131,24 L17,24 C14.2385763,24 12,21.7614237 12,19 L12,17 C12,14.2385763 14.2385763,12 17,12 L87,12 C89.7614237,12 92,14.2385763 92,17 L92,19 C92,21.7614237 89.7614237,24 87,24 L74.8310869,24 Z" id="Aww-Yeahh" fill="#FF3D3D" mask="url(#mask-8)"></path>
                    <path d="M39,-4 L50,-4 L30,42 L19,42 L39,-4 Z M28,-4 L32,-4 L12,42 L8,42 L28,-4 Z" id="Highlight" fill-opacity="0.2" fill="#FFFFFF" mask="url(#mask-8)"></path>
                </g>
            </g>
        </g>
    </g>
</svg>