<?xml version="1.0" encoding="UTF-8"?>
<svg width="160px" height="164px" viewBox="0 0 160 164" version="1.1" xmlns="http://www.w3.org/2000/svg" xmlns:xlink="http://www.w3.org/1999/xlink">
    <!-- Generator: Sketch 52.3 (67297) - http://www.bohemiancoding.com/sketch -->
    <title>bot-15</title>
    <desc>Created with Sketch.</desc>
    <defs>
        <path d="M152,19 L154.87223,19 C156.655267,19 157.30184,19.1856512 157.953691,19.5342654 C158.605543,19.8828796 159.11712,20.3944567 159.465735,21.0463086 C159.814349,21.6981604 160,22.3447329 160,24.1277704 L160,45.8722296 C160,47.6552671 159.814349,48.3018396 159.465735,48.9536914 C159.11712,49.6055433 158.605543,50.1171204 157.953691,50.4657346 C157.30184,50.8143488 156.655267,51 154.87223,51 L129.12777,51 C127.344733,51 126.69816,50.8143488 126.046309,50.4657346 C125.394457,50.1171204 124.88288,49.6055433 124.534265,48.9536914 C124.185651,48.3018396 124,47.6552671 124,45.8722296 L124,24.1277704 C124,22.3447329 124.185651,21.6981604 124.534265,21.0463086 C124.88288,20.3944567 125.394457,19.8828796 126.046309,19.5342654 C126.69816,19.1856512 127.344733,19 129.12777,19 L150,19 L150,0 L152,0 L152,19 Z M5.1277704,19 L30.8722296,19 C32.6552671,19 33.3018396,19.1856512 33.9536914,19.5342654 C34.6055433,19.8828796 35.1171204,20.3944567 35.4657346,21.0463086 C35.8143488,21.6981604 36,22.3447329 36,24.1277704 L36,45.8722296 C36,47.6552671 35.8143488,48.3018396 35.4657346,48.9536914 C35.1171204,49.6055433 34.6055433,50.1171204 33.9536914,50.4657346 C33.3018396,50.8143488 32.6552671,51 30.8722296,51 L5.1277704,51 C3.34473292,51 2.69816044,50.8143488 2.04630859,50.4657346 C1.39445674,50.1171204 0.882879593,49.6055433 0.534265408,48.9536914 C0.185651222,48.3018396 8.02470732e-17,47.6552671 -1.38112041e-16,45.8722296 L1.38112041e-16,24.1277704 C-8.02470732e-17,22.3447329 0.185651222,21.6981604 0.534265408,21.0463086 C0.882879593,20.3944567 1.39445674,19.8828796 2.04630859,19.5342654 C2.69816044,19.1856512 3.34473292,19 5.1277704,19 Z" id="path-1"></path>
        <path d="M47.9411255,31.5810711 C46.4603547,30.7251846 45.0658376,29.6638174 43.7989899,28.3969696 C35.988504,20.5864838 35.988504,7.92318421 43.7989899,0.112698372 L57.2340187,13.5477272 L63.6870876,7.09465837 C62.7811534,5.56075283 62.987153,3.55195222 64.3050865,2.23401872 C65.8671837,0.671921549 68.3998436,0.671921549 69.9619408,2.23401872 C71.5240379,3.79611588 71.5240379,6.3287758 69.9619408,7.89087297 C68.6440073,9.20880647 66.6352067,9.41480612 65.1013011,8.50887193 L58.6482323,14.9619408 L72.0832611,28.3969696 C66.6329618,33.8472689 58.8195836,35.4942501 51.9411255,33.3379131 L51.9411255,52.1126984 L47.9411255,52.1126984 L47.9411255,31.5810711 Z" id="path-3"></path>
        <path d="M66,0 C124.351567,0 130.000727,40.6854074 130,78 C129.999351,111.314593 104.534073,120 66,120 C28.5386545,120 2.20992466e-15,111.314593 0,78 C0,40.6854074 7.64843282,6.59631323e-15 66,0 Z" id="path-5"></path>
    </defs>
    <g id="Page-1" stroke="none" stroke-width="1" fill="none" fill-rule="evenodd">
        <g id="Bottt/Head" transform="translate(-10.000000, 0.000000)">
            <g id="Sides/Antenna-02" transform="translate(0.000000, 66.000000)" fill-rule="evenodd" stroke-width="1">
                <g id="Ears" transform="translate(10.000000, 9.000000)">
                    <mask id="mask-2" fill="white">
                        <use xlink:href="#path-1"></use>
                    </mask>
                    <use fill="#0076DE" xlink:href="#path-1"></use>
                    <g id="Color/05-Indigo/900" mask="url(#mask-2)" fill="#1A237E">
                        <g transform="translate(-10.000000, -9.000000)">
                            <rect x="0" y="0" width="180" height="76"></rect>
                        </g>
                    </g>
                    <rect id="Shadow" fill-opacity="0.1" fill="#000000" mask="url(#mask-2)" x="-10" y="29" width="180" height="38"></rect>
                </g>
                <g id="Antenna" transform="translate(157.000000, 1.000000)">
                    <rect fill-opacity="0.4" fill="#FFFFFF" x="3" y="7" width="2" height="20"></rect>
                    <circle id="Beep-Boop" fill="#E1E6E8" cx="4" cy="4" r="4"></circle>
                    <circle id="Beep-Boop" fill="#FFFFFF" cx="5" cy="3" r="2"></circle>
                </g>
            </g>
            <g id="Top/Radar" transform="translate(41.000000, 0.000000)">
                <mask id="mask-4" fill="white">
                    <use xlink:href="#path-3"></use>
                </mask>
                <use id="Radar" fill="#E1E6E8" fill-rule="evenodd" xlink:href="#path-3"></use>
                <g id="Color/05-Indigo/900" mask="url(#mask-4)" fill="#1A237E" fill-rule="evenodd">
                    <rect x="0" y="0" width="100" height="52"></rect>
                </g>
                <path d="M30.8700577,11.3259018 C30.8700577,22.3715968 39.8243627,31.3259018 50.8700577,31.3259018 C61.9157527,31.3259018 70.8700577,22.3715968 70.8700577,11.3259018" id="Dish" fill-opacity="0.2" fill="#FFFFFF" fill-rule="evenodd" mask="url(#mask-4)"></path>
                <circle id="Searching..." fill-opacity="0.8" fill="#FFFFFF" fill-rule="evenodd" mask="url(#mask-4)" cx="67.1335137" cy="5.06244584" r="5.65685425"></circle>
            </g>
            <g id="Face/Round-01" transform="translate(25.000000, 44.000000)">
                <mask id="mask-6" fill="white">
                    <use xlink:href="#path-5"></use>
                </mask>
                <use id="Path-2" fill-opacity="0.8" fill="#000000" fill-rule="evenodd" xlink:href="#path-5"></use>
                <g id="Color/18-Grey/200" mask="url(#mask-6)" fill="#EEEEEE" fill-rule="evenodd">
                    <g transform="translate(-4.000000, -2.000000)">
                        <rect x="0" y="0" width="138" height="124"></rect>
                    </g>
                </g>
            </g>
            <g id="Mouth/Grill-02" transform="translate(52.000000, 124.000000)" fill="#000000" fill-opacity="0.6" fill-rule="evenodd" stroke-width="1">
                <g id="Grill" transform="translate(14.000000, 10.000000)">
                    <rect id="Grill-Grin" x="14" y="0" width="6" height="14" rx="2"></rect>
                    <rect id="Grill-Grin" x="0" y="0" width="6" height="14" rx="2"></rect>
                    <rect id="Grill-Grin" x="28" y="0" width="6" height="14" rx="2"></rect>
                    <rect id="Grill-Grin" x="42" y="0" width="6" height="14" rx="2"></rect>
                </g>
            </g>
            <g id="Eyes/Frame-2" transform="translate(38.000000, 76.000000)" fill-rule="evenodd">
                <rect id="Container" fill-opacity="0.8" fill="#000000" x="8" y="10" width="88" height="36" rx="4"></rect>
                <polygon id="Reflection" fill-opacity="0.4" fill="#FFFFFF" points="83 10 88 10 76 46 71 46"></polygon>
                <path d="M26.784968,16.7469186 C25.7533643,13.7186407 27.5040845,11.272079 28.6129729,11.275655 L28.6129729,11.275655 C28.6129729,11.275655 30.9464411,9.59410178 34.165189,14.5373981 C37.3839369,19.4806944 37.8603044,27.679981 37.4972176,31.4808451 C37.1341308,35.2817092 36.5515224,38.9174191 33.6877065,43.0217008 C30.8238906,47.1259825 27.9248912,46.7751522 27.9248912,46.7751522 L27.9248912,46.7751522 C26.0306461,46.7690435 25.4737245,44.3627886 26.6486782,41.3713295 C26.6486782,41.3713295 30.1837577,33.1599409 30.2243972,29.7413986 C30.2650367,26.3228563 26.784968,16.7469186 26.784968,16.7469186 Z" id="Rectangle-50" fill="#5EF2B8" transform="translate(31.800296, 28.891315) rotate(-89.000000) translate(-31.800296, -28.891315) "></path>
                <path d="M67.784968,16.7469186 C66.7533643,13.7186407 68.5040845,11.272079 69.6129729,11.275655 L69.6129729,11.275655 C69.6129729,11.275655 71.9464411,9.59410178 75.165189,14.5373981 C78.3839369,19.4806944 78.8603044,27.679981 78.4972176,31.4808451 C78.1341308,35.2817092 77.5515224,38.9174191 74.6877065,43.0217008 C71.8238906,47.1259825 68.9248912,46.7751522 68.9248912,46.7751522 L68.9248912,46.7751522 C67.0306461,46.7690435 66.4737245,44.3627886 67.6486782,41.3713295 C67.6486782,41.3713295 71.1837577,33.1599409 71.2243972,29.7413986 C71.2650367,26.3228563 67.784968,16.7469186 67.784968,16.7469186 Z" id="Rectangle-50" fill="#5EF2B8" transform="translate(72.800296, 28.891315) scale(-1, 1) rotate(-89.000000) translate(-72.800296, -28.891315) "></path>
            </g>
        </g>
    </g>
</svg>