<?xml version="1.0" encoding="UTF-8"?>
<svg width="341px" height="164px" viewBox="0 0 341 164" version="1.1" xmlns="http://www.w3.org/2000/svg" xmlns:xlink="http://www.w3.org/1999/xlink">
    <!-- Generator: Sketch 52.3 (67297) - http://www.bohemiancoding.com/sketch -->
    <title>Group</title>
    <desc>Created with Sketch.</desc>
    <defs>
        <path d="M152,19 L154.87223,19 C156.655267,19 157.30184,19.1856512 157.953691,19.5342654 C158.605543,19.8828796 159.11712,20.3944567 159.465735,21.0463086 C159.814349,21.6981604 160,22.3447329 160,24.1277704 L160,45.8722296 C160,47.6552671 159.814349,48.3018396 159.465735,48.9536914 C159.11712,49.6055433 158.605543,50.1171204 157.953691,50.4657346 C157.30184,50.8143488 156.655267,51 154.87223,51 L129.12777,51 C127.344733,51 126.69816,50.8143488 126.046309,50.4657346 C125.394457,50.1171204 124.88288,49.6055433 124.534265,48.9536914 C124.185651,48.3018396 124,47.6552671 124,45.8722296 L124,24.1277704 C124,22.3447329 124.185651,21.6981604 124.534265,21.0463086 C124.88288,20.3944567 125.394457,19.8828796 126.046309,19.5342654 C126.69816,19.1856512 127.344733,19 129.12777,19 L150,19 L150,0 L152,0 L152,19 Z M5.1277704,19 L30.8722296,19 C32.6552671,19 33.3018396,19.1856512 33.9536914,19.5342654 C34.6055433,19.8828796 35.1171204,20.3944567 35.4657346,21.0463086 C35.8143488,21.6981604 36,22.3447329 36,24.1277704 L36,45.8722296 C36,47.6552671 35.8143488,48.3018396 35.4657346,48.9536914 C35.1171204,49.6055433 34.6055433,50.1171204 33.9536914,50.4657346 C33.3018396,50.8143488 32.6552671,51 30.8722296,51 L5.1277704,51 C3.34473292,51 2.69816044,50.8143488 2.04630859,50.4657346 C1.39445674,50.1171204 0.882879593,49.6055433 0.534265408,48.9536914 C0.185651222,48.3018396 8.02470732e-17,47.6552671 -1.38112041e-16,45.8722296 L1.38112041e-16,24.1277704 C-8.02470732e-17,22.3447329 0.185651222,21.6981604 0.534265408,21.0463086 C0.882879593,20.3944567 1.39445674,19.8828796 2.04630859,19.5342654 C2.69816044,19.1856512 3.34473292,19 5.1277704,19 Z" id="path-1"></path>
        <path d="M47.9411255,31.5810711 C46.4603547,30.7251846 45.0658376,29.6638174 43.7989899,28.3969696 C35.988504,20.5864838 35.988504,7.92318421 43.7989899,0.112698372 L57.2340187,13.5477272 L63.6870876,7.09465837 C62.7811534,5.56075283 62.987153,3.55195222 64.3050865,2.23401872 C65.8671837,0.671921549 68.3998436,0.671921549 69.9619408,2.23401872 C71.5240379,3.79611588 71.5240379,6.3287758 69.9619408,7.89087297 C68.6440073,9.20880647 66.6352067,9.41480612 65.1013011,8.50887193 L58.6482323,14.9619408 L72.0832611,28.3969696 C66.6329618,33.8472689 58.8195836,35.4942501 51.9411255,33.3379131 L51.9411255,52.1126984 L47.9411255,52.1126984 L47.9411255,31.5810711 Z" id="path-3"></path>
        <path d="M66,0 C124.351567,0 130.000727,40.6854074 130,78 C129.999351,111.314593 104.534073,120 66,120 C28.5386545,120 2.20992466e-15,111.314593 0,78 C0,40.6854074 7.64843282,6.59631323e-15 66,0 Z" id="path-5"></path>
    </defs>
    <g id="Page-1" stroke="none" stroke-width="1" fill="none" fill-rule="evenodd">
        <g id="Group" transform="translate(-10.000000, 0.000000)">
            <g id="Bottt/Head">
                <g id="Sides/Antenna-02" transform="translate(0.000000, 66.000000)" fill-rule="evenodd" stroke-width="1">
                    <g id="Ears" transform="translate(10.000000, 9.000000)">
                        <mask id="mask-2" fill="white">
                            <use xlink:href="#path-1"></use>
                        </mask>
                        <use fill="#0076DE" xlink:href="#path-1"></use>
                        <g id="Color/05-Indigo/900" mask="url(#mask-2)" fill="#1A237E">
                            <g transform="translate(-10.000000, -9.000000)">
                                <rect x="0" y="0" width="180" height="76"></rect>
                            </g>
                        </g>
                        <rect id="Shadow" fill-opacity="0.1" fill="#000000" mask="url(#mask-2)" x="-10" y="29" width="180" height="38"></rect>
                    </g>
                    <g id="Antenna" transform="translate(157.000000, 1.000000)">
                        <rect fill-opacity="0.4" fill="#FFFFFF" x="3" y="7" width="2" height="20"></rect>
                        <circle id="Beep-Boop" fill="#E1E6E8" cx="4" cy="4" r="4"></circle>
                        <circle id="Beep-Boop" fill="#FFFFFF" cx="5" cy="3" r="2"></circle>
                    </g>
                </g>
                <g id="Top/Radar" transform="translate(41.000000, 0.000000)">
                    <mask id="mask-4" fill="white">
                        <use xlink:href="#path-3"></use>
                    </mask>
                    <use id="Radar" fill="#E1E6E8" fill-rule="evenodd" xlink:href="#path-3"></use>
                    <g id="Color/05-Indigo/900" mask="url(#mask-4)" fill="#1A237E" fill-rule="evenodd">
                        <rect x="0" y="0" width="100" height="52"></rect>
                    </g>
                    <path d="M30.8700577,11.3259018 C30.8700577,22.3715968 39.8243627,31.3259018 50.8700577,31.3259018 C61.9157527,31.3259018 70.8700577,22.3715968 70.8700577,11.3259018" id="Dish" fill-opacity="0.2" fill="#FFFFFF" fill-rule="evenodd" mask="url(#mask-4)"></path>
                    <circle id="Searching..." fill-opacity="0.8" fill="#FFFFFF" fill-rule="evenodd" mask="url(#mask-4)" cx="67.1335137" cy="5.06244584" r="5.65685425"></circle>
                </g>
                <g id="Face/Round-01" transform="translate(25.000000, 44.000000)">
                    <mask id="mask-6" fill="white">
                        <use xlink:href="#path-5"></use>
                    </mask>
                    <use id="Path-2" fill-opacity="0.8" fill="#000000" fill-rule="evenodd" xlink:href="#path-5"></use>
                    <g id="Color/18-Grey/200" mask="url(#mask-6)" fill="#EEEEEE" fill-rule="evenodd">
                        <g transform="translate(-4.000000, -2.000000)">
                            <rect x="0" y="0" width="138" height="124"></rect>
                        </g>
                    </g>
                </g>
                <g id="Mouth/Grill-02" transform="translate(52.000000, 124.000000)" fill="#000000" fill-opacity="0.6" fill-rule="evenodd" stroke-width="1">
                    <g id="Grill" transform="translate(14.000000, 10.000000)">
                        <rect id="Grill-Grin" x="14" y="0" width="6" height="14" rx="2"></rect>
                        <rect id="Grill-Grin" x="0" y="0" width="6" height="14" rx="2"></rect>
                        <rect id="Grill-Grin" x="28" y="0" width="6" height="14" rx="2"></rect>
                        <rect id="Grill-Grin" x="42" y="0" width="6" height="14" rx="2"></rect>
                    </g>
                </g>
                <g id="Eyes/Frame-2" transform="translate(38.000000, 76.000000)" fill-rule="evenodd">
                    <rect id="Container" fill-opacity="0.8" fill="#000000" x="8" y="10" width="88" height="36" rx="4"></rect>
                    <path d="M30.5638852,21 L35.4361148,21 C36.3276335,21 36.6509198,21.0928256 36.9768457,21.2671327 C37.3027716,21.4414398 37.5585602,21.6972284 37.7328673,22.0231543 C37.9071744,22.3490802 38,22.6723665 38,23.5638852 L38,35.4361148 C38,36.3276335 37.9071744,36.6509198 37.7328673,36.9768457 C37.5585602,37.3027716 37.3027716,37.5585602 36.9768457,37.7328673 C36.6509198,37.9071744 36.3276335,38 35.4361148,38 L30.5638852,38 C29.6723665,38 29.3490802,37.9071744 29.0231543,37.7328673 C28.6972284,37.5585602 28.4414398,37.3027716 28.2671327,36.9768457 C28.0928256,36.6509198 28,36.3276335 28,35.4361148 L28,23.5638852 C28,22.6723665 28.0928256,22.3490802 28.2671327,22.0231543 C28.4414398,21.6972284 28.6972284,21.4414398 29.0231543,21.2671327 C29.3490802,21.0928256 29.6723665,21 30.5638852,21 Z" id="Eye" fill="#5EF2B8"></path>
                    <path d="M68.5638852,21 L73.4361148,21 C74.3276335,21 74.6509198,21.0928256 74.9768457,21.2671327 C75.3027716,21.4414398 75.5585602,21.6972284 75.7328673,22.0231543 C75.9071744,22.3490802 76,22.6723665 76,23.5638852 L76,35.4361148 C76,36.3276335 75.9071744,36.6509198 75.7328673,36.9768457 C75.5585602,37.3027716 75.3027716,37.5585602 74.9768457,37.7328673 C74.6509198,37.9071744 74.3276335,38 73.4361148,38 L68.5638852,38 C67.6723665,38 67.3490802,37.9071744 67.0231543,37.7328673 C66.6972284,37.5585602 66.4414398,37.3027716 66.2671327,36.9768457 C66.0928256,36.6509198 66,36.3276335 66,35.4361148 L66,23.5638852 C66,22.6723665 66.0928256,22.3490802 66.2671327,22.0231543 C66.4414398,21.6972284 66.6972284,21.4414398 67.0231543,21.2671327 C67.3490802,21.0928256 67.6723665,21 68.5638852,21 Z" id="Eye" fill="#5EF2B8"></path>
                    <polygon id="Reflection" fill-opacity="0.4" fill="#FFFFFF" points="83 10 88 10 76 46 71 46"></polygon>
                </g>
            </g>
            <path d="M204.608869,26 L328,26 C340.702549,26 351,36.2974507 351,49 L351,136 C351,148.702549 340.702549,159 328,159 L216.345245,159 L167.935959,159 L181.608869,145.128834 L181.608869,49 C181.608869,36.2974508 191.90632,26 204.608869,26 Z" id="Rectangle" fill="#FFFFFF"></path>
            <path d="M212.739665,58.9882812 L214.216227,58.9882812 L214.330485,68.1640625 L212.625407,68.1640625 L212.739665,58.9882812 Z M214.392009,56.2460938 C214.392009,56.5097669 214.311443,56.732421 214.150309,56.9140625 C213.989176,57.095704 213.750409,57.1865234 213.434001,57.1865234 C213.117593,57.1865234 212.877361,57.095704 212.713298,56.9140625 C212.549234,56.732421 212.467204,56.5097669 212.467204,56.2460938 C212.467204,55.9824206 212.549234,55.7626962 212.713298,55.5869141 C212.877361,55.4111319 213.117593,55.3232422 213.434001,55.3232422 C213.750409,55.3232422 213.989176,55.4111319 214.150309,55.5869141 C214.311443,55.7626962 214.392009,55.9824206 214.392009,56.2460938 Z M226.305558,53.5917969 L222.192277,53.5917969 L222.192277,65 L220.513566,65 L220.513566,53.5917969 L216.409073,53.5917969 L216.409073,52.203125 L226.305558,52.203125 L226.305558,53.5917969 Z M231.372427,65.1757812 C230.083358,65.1757812 229.034541,64.7524456 228.225943,63.9057617 C227.417345,63.0590778 227.013052,61.9267649 227.013052,60.5087891 L227.013052,60.2099609 C227.013052,59.2665968 227.193226,58.4243201 227.55358,57.6831055 C227.913933,56.9418908 228.417834,56.3618185 229.065298,55.9428711 C229.712763,55.5239237 230.414416,55.3144531 231.170279,55.3144531 C232.406613,55.3144531 233.367541,55.7216756 234.053091,56.5361328 C234.738642,57.35059 235.081412,58.516594 235.081412,60.0341797 L235.081412,60.7109375 L228.639029,60.7109375 C228.662466,61.6484422 228.936389,62.4057588 229.460806,62.9829102 C229.985223,63.5600615 230.65172,63.8486328 231.460318,63.8486328 C232.03454,63.8486328 232.520863,63.7314465 232.919302,63.4970703 C233.317742,63.2626941 233.666371,62.9521504 233.965201,62.5654297 L234.958365,63.3388672 C234.161486,64.5634827 232.966185,65.1757812 231.372427,65.1757812 Z M231.170279,56.6503906 C230.514026,56.6503906 229.96325,56.8891578 229.517935,57.3666992 C229.07262,57.8442407 228.797232,58.5136676 228.691763,59.375 L233.455435,59.375 L233.455435,59.2519531 C233.40856,58.4257771 233.185906,57.7856468 232.787466,57.331543 C232.389027,56.8774391 231.84997,56.6503906 231.170279,56.6503906 Z M247.983705,65 C247.889955,64.8124991 247.813784,64.478518 247.75519,63.9980469 C246.999326,64.7832071 246.096992,65.1757812 245.048158,65.1757812 C244.110654,65.1757812 243.341618,64.9106472 242.741029,64.3803711 C242.140441,63.850095 241.840151,63.1777384 241.840151,62.3632812 C241.840151,61.3730419 242.216612,60.6040066 242.969545,60.0561523 C243.722479,59.508298 244.78155,59.234375 246.146791,59.234375 L247.728822,59.234375 L247.728822,58.4873047 C247.728822,57.9189425 247.558902,57.4663103 247.219057,57.1293945 C246.879211,56.7924788 246.37824,56.6240234 245.716127,56.6240234 C245.136046,56.6240234 244.649723,56.7705063 244.257143,57.0634766 C243.864563,57.3564468 243.668276,57.7109354 243.668276,58.1269531 L242.03351,58.1269531 C242.03351,57.6523414 242.201965,57.1938499 242.538881,56.7514648 C242.875797,56.3090798 243.332823,55.9589857 243.909975,55.7011719 C244.487126,55.4433581 245.121397,55.3144531 245.812807,55.3144531 C246.908515,55.3144531 247.766905,55.5883762 248.388002,56.1362305 C249.009099,56.6840848 249.331361,57.4384718 249.354799,58.3994141 L249.354799,62.7763672 C249.354799,63.6494184 249.466126,64.3437474 249.688783,64.859375 L249.688783,65 L247.983705,65 Z M245.285463,63.7607422 C245.795231,63.7607422 246.278625,63.6289076 246.735658,63.3652344 C247.192692,63.1015612 247.523743,62.7587912 247.728822,62.3369141 L247.728822,60.3857422 L246.454408,60.3857422 C244.462211,60.3857422 243.466127,60.9687442 243.466127,62.1347656 C243.466127,62.6445338 243.636047,63.0429673 243.975893,63.3300781 C244.315738,63.6171889 244.752257,63.7607422 245.285463,63.7607422 Z M255.230262,62.6181641 L257.445106,55.4902344 L259.18534,55.4902344 L255.362098,66.4677734 C254.770298,68.0498126 253.829878,68.8408203 252.540809,68.8408203 L252.233192,68.8144531 L251.626747,68.7001953 L251.626747,67.3818359 L252.0662,67.4169922 C252.616984,67.4169922 253.046179,67.3056652 253.353797,67.0830078 C253.661416,66.8603504 253.914832,66.453128 254.114051,65.8613281 L254.474403,64.8945312 L251.081825,55.4902344 L252.857215,55.4902344 L255.230262,62.6181641 Z M266.853772,64.0595703 C266.220957,64.8037147 265.292255,65.1757812 264.067639,65.1757812 C263.053963,65.1757812 262.281998,64.8813506 261.751722,64.2924805 C261.221445,63.7036103 260.953382,62.832037 260.947522,61.6777344 L260.947522,55.4902344 L262.573499,55.4902344 L262.573499,61.6337891 C262.573499,63.0752025 263.159431,63.7958984 264.331311,63.7958984 C265.573505,63.7958984 266.399669,63.3330124 266.809827,62.4072266 L266.809827,55.4902344 L268.435804,55.4902344 L268.435804,65 L266.888929,65 L266.853772,64.0595703 Z M270.857165,60.1660156 C270.857165,58.707024 271.202865,57.5336958 271.894275,56.6459961 C272.585684,55.7582963 273.490949,55.3144531 274.610095,55.3144531 C275.723382,55.3144531 276.605209,55.6953087 277.255603,56.4570312 L277.255603,51.5 L278.881579,51.5 L278.881579,65 L277.387439,65 L277.308337,63.9804688 C276.657943,64.7773477 275.752679,65.1757812 274.592517,65.1757812 C273.490949,65.1757812 272.593009,64.7246139 271.898669,63.8222656 C271.20433,62.9199174 270.857165,61.7421948 270.857165,60.2890625 L270.857165,60.1660156 Z M272.483142,60.3505859 C272.483142,61.4287163 272.705796,62.2724579 273.151111,62.8818359 C273.596425,63.491214 274.211653,63.7958984 274.996814,63.7958984 C276.028069,63.7958984 276.780991,63.3330124 277.255603,62.4072266 L277.255603,58.0390625 C276.769272,57.1425736 276.022209,56.6943359 275.014392,56.6943359 C274.217513,56.6943359 273.596425,57.00195 273.151111,57.6171875 C272.705796,58.232425 272.483142,59.1435487 272.483142,60.3505859 Z M287.622277,65 C287.528526,64.8124991 287.452355,64.478518 287.393761,63.9980469 C286.637898,64.7832071 285.735563,65.1757812 284.68673,65.1757812 C283.749225,65.1757812 282.98019,64.9106472 282.379601,64.3803711 C281.779012,63.850095 281.478722,63.1777384 281.478722,62.3632812 C281.478722,61.3730419 281.855183,60.6040066 282.608117,60.0561523 C283.36105,59.508298 284.420122,59.234375 285.785363,59.234375 L287.367394,59.234375 L287.367394,58.4873047 C287.367394,57.9189425 287.197474,57.4663103 286.857628,57.1293945 C286.517783,56.7924788 286.016811,56.6240234 285.354699,56.6240234 C284.774618,56.6240234 284.288294,56.7705063 283.895714,57.0634766 C283.503134,57.3564468 283.306847,57.7109354 283.306847,58.1269531 L281.672082,58.1269531 C281.672082,57.6523414 281.840537,57.1938499 282.177453,56.7514648 C282.514368,56.3090798 282.971395,55.9589857 283.548546,55.7011719 C284.125698,55.4433581 284.759969,55.3144531 285.451378,55.3144531 C286.547087,55.3144531 287.405477,55.5883762 288.026574,56.1362305 C288.647671,56.6840848 288.969933,57.4384718 288.993371,58.3994141 L288.993371,62.7763672 C288.993371,63.6494184 289.104698,64.3437474 289.327355,64.859375 L289.327355,65 L287.622277,65 Z M284.924035,63.7607422 C285.433803,63.7607422 285.917196,63.6289076 286.37423,63.3652344 C286.831264,63.1015612 287.162315,62.7587912 287.367394,62.3369141 L287.367394,60.3857422 L286.09298,60.3857422 C284.100783,60.3857422 283.104699,60.9687442 283.104699,62.1347656 C283.104699,62.6445338 283.274619,63.0429673 283.614464,63.3300781 C283.95431,63.6171889 284.390829,63.7607422 284.924035,63.7607422 Z M296.486021,56.9492188 C296.239926,56.9082029 295.973327,56.8876953 295.686217,56.8876953 C294.619805,56.8876953 293.896179,57.3417923 293.515318,58.25 L293.515318,65 L291.889342,65 L291.889342,55.4902344 L293.471373,55.4902344 L293.49774,56.5888672 C294.030946,55.7392536 294.786798,55.3144531 295.765318,55.3144531 C296.081726,55.3144531 296.321958,55.3554683 296.486021,55.4375 L296.486021,56.9492188 Z M302.106602,65.1757812 C300.817533,65.1757812 299.768715,64.7524456 298.960117,63.9057617 C298.15152,63.0590778 297.747227,61.9267649 297.747227,60.5087891 L297.747227,60.2099609 C297.747227,59.2665968 297.927401,58.4243201 298.287754,57.6831055 C298.648107,56.9418908 299.152009,56.3618185 299.799473,55.9428711 C300.446937,55.5239237 301.14859,55.3144531 301.904453,55.3144531 C303.140788,55.3144531 304.101715,55.7216756 304.787266,56.5361328 C305.472816,57.35059 305.815586,58.516594 305.815586,60.0341797 L305.815586,60.7109375 L299.373203,60.7109375 C299.396641,61.6484422 299.670564,62.4057588 300.194981,62.9829102 C300.719397,63.5600615 301.385895,63.8486328 302.194492,63.8486328 C302.768714,63.8486328 303.255037,63.7314465 303.653477,63.4970703 C304.051916,63.2626941 304.400546,62.9521504 304.699375,62.5654297 L305.692539,63.3388672 C304.89566,64.5634827 303.70036,65.1757812 302.106602,65.1757812 Z M301.904453,56.6503906 C301.2482,56.6503906 300.697424,56.8891578 300.25211,57.3666992 C299.806795,57.8442407 299.531407,58.5136676 299.425938,59.375 L304.18961,59.375 L304.18961,59.2519531 C304.142734,58.4257771 303.92008,57.7856468 303.521641,57.331543 C303.123201,56.8774391 302.584144,56.6503906 301.904453,56.6503906 Z M302.695469,51.5 L304.664219,51.5 L302.30875,54.0839844 L300.99918,54.0839844 L302.695469,51.5 Z M318.71788,65 C318.624129,64.8124991 318.547958,64.478518 318.489364,63.9980469 C317.733501,64.7832071 316.831166,65.1757812 315.782333,65.1757812 C314.844828,65.1757812 314.075793,64.9106472 313.475204,64.3803711 C312.874615,63.850095 312.574325,63.1777384 312.574325,62.3632812 C312.574325,61.3730419 312.950786,60.6040066 313.70372,60.0561523 C314.456653,59.508298 315.515724,59.234375 316.880966,59.234375 L318.462997,59.234375 L318.462997,58.4873047 C318.462997,57.9189425 318.293077,57.4663103 317.953231,57.1293945 C317.613386,56.7924788 317.112414,56.6240234 316.450302,56.6240234 C315.870221,56.6240234 315.383897,56.7705063 314.991317,57.0634766 C314.598737,57.3564468 314.40245,57.7109354 314.40245,58.1269531 L312.767684,58.1269531 C312.767684,57.6523414 312.93614,57.1938499 313.273055,56.7514648 C313.609971,56.3090798 314.066998,55.9589857 314.644149,55.7011719 C315.221301,55.4433581 315.855572,55.3144531 316.546981,55.3144531 C317.64269,55.3144531 318.50108,55.5883762 319.122177,56.1362305 C319.743273,56.6840848 320.065536,57.4384718 320.088973,58.3994141 L320.088973,62.7763672 C320.088973,63.6494184 320.2003,64.3437474 320.422958,64.859375 L320.422958,65 L318.71788,65 Z M316.019638,63.7607422 C316.529406,63.7607422 317.012799,63.6289076 317.469833,63.3652344 C317.926866,63.1015612 318.257918,62.7587912 318.462997,62.3369141 L318.462997,60.3857422 L317.188583,60.3857422 C315.196385,60.3857422 314.200302,60.9687442 314.200302,62.1347656 C314.200302,62.6445338 314.370222,63.0429673 314.710067,63.3300781 C315.049913,63.6171889 315.486432,63.7607422 316.019638,63.7607422 Z M219.045817,81.1660156 C219.045817,79.707024 219.391517,78.5336958 220.082927,77.6459961 C220.774336,76.7582963 221.679601,76.3144531 222.798747,76.3144531 C223.912034,76.3144531 224.793861,76.6953087 225.444255,77.4570312 L225.444255,72.5 L227.070231,72.5 L227.070231,86 L225.576091,86 L225.496989,84.9804688 C224.846595,85.7773477 223.941331,86.1757812 222.781169,86.1757812 C221.679601,86.1757812 220.781661,85.7246139 220.087321,84.8222656 C219.392982,83.9199174 219.045817,82.7421948 219.045817,81.2890625 L219.045817,81.1660156 Z M220.671794,81.3505859 C220.671794,82.4287163 220.894448,83.2724579 221.339763,83.8818359 C221.785077,84.491214 222.400306,84.7958984 223.185466,84.7958984 C224.216721,84.7958984 224.969643,84.3330124 225.444255,83.4072266 L225.444255,79.0390625 C224.957924,78.1425736 224.210861,77.6943359 223.203044,77.6943359 C222.406165,77.6943359 221.785077,78.00195 221.339763,78.6171875 C220.894448,79.232425 220.671794,80.1435487 220.671794,81.3505859 Z M233.886124,86.1757812 C232.597055,86.1757812 231.548238,85.7524456 230.73964,84.9057617 C229.931042,84.0590778 229.526749,82.9267649 229.526749,81.5087891 L229.526749,81.2099609 C229.526749,80.2665968 229.706923,79.4243201 230.067277,78.6831055 C230.42763,77.9418908 230.931531,77.3618185 231.578995,76.9428711 C232.226459,76.5239237 232.928113,76.3144531 233.683976,76.3144531 C234.92031,76.3144531 235.881238,76.7216756 236.566788,77.5361328 C237.252339,78.35059 237.595109,79.516594 237.595109,81.0341797 L237.595109,81.7109375 L231.152726,81.7109375 C231.176163,82.6484422 231.450086,83.4057588 231.974503,83.9829102 C232.49892,84.5600615 233.165417,84.8486328 233.974015,84.8486328 C234.548236,84.8486328 235.03456,84.7314465 235.432999,84.4970703 C235.831439,84.2626941 236.180068,83.9521504 236.478898,83.5654297 L237.472062,84.3388672 C236.675183,85.5634827 235.479882,86.1757812 233.886124,86.1757812 Z M233.683976,77.6503906 C233.027722,77.6503906 232.476947,77.8891578 232.031632,78.3666992 C231.586317,78.8442407 231.310929,79.5136676 231.20546,80.375 L235.969132,80.375 L235.969132,80.2519531 C235.922257,79.4257771 235.699603,78.7856468 235.301163,78.331543 C234.902724,77.8774391 234.363667,77.6503906 233.683976,77.6503906 Z M243.637564,84.8486328 C244.217645,84.8486328 244.724476,84.6728533 245.158072,84.3212891 C245.591668,83.9697248 245.8319,83.5302761 245.878775,83.0029297 L247.416861,83.0029297 C247.387564,83.5478543 247.200066,84.0664038 246.854361,84.5585938 C246.508656,85.0507837 246.047235,85.4433579 245.470084,85.7363281 C244.892932,86.0292983 244.282098,86.1757812 243.637564,86.1757812 C242.342636,86.1757812 241.312861,85.7436567 240.548209,84.8793945 C239.783556,84.0151324 239.401236,82.8330153 239.401236,81.3330078 L239.401236,81.0605469 C239.401236,80.134761 239.571156,79.311527 239.911001,78.5908203 C240.250847,77.8701136 240.738635,77.3105489 241.37438,76.9121094 C242.010126,76.5136699 242.761583,76.3144531 243.628775,76.3144531 C244.695187,76.3144531 245.581408,76.6337859 246.287466,77.2724609 C246.993525,77.911136 247.369986,78.7402293 247.416861,79.7597656 L245.878775,79.7597656 C245.8319,79.1445282 245.598992,78.6391621 245.180044,78.2436523 C244.761097,77.8481426 244.244012,77.6503906 243.628775,77.6503906 C242.802599,77.6503906 242.162469,77.9477509 241.708365,78.5424805 C241.254261,79.13721 241.027212,79.9970647 241.027212,81.1220703 L241.027212,81.4296875 C241.027212,82.5253961 241.252796,83.3691377 241.70397,83.9609375 C242.155144,84.5527373 242.799669,84.8486328 243.637564,84.8486328 Z M251.35873,86 L249.732754,86 L249.732754,76.4902344 L251.35873,76.4902344 L251.35873,86 Z M249.600918,73.9677734 C249.600918,73.7041002 249.681483,73.4814462 249.842617,73.2998047 C250.003751,73.1181632 250.242518,73.0273438 250.558926,73.0273438 C250.875333,73.0273438 251.115565,73.1181632 251.279629,73.2998047 C251.443692,73.4814462 251.525723,73.7041002 251.525723,73.9677734 C251.525723,74.2314466 251.443692,74.451171 251.279629,74.6269531 C251.115565,74.8027353 250.875333,74.890625 250.558926,74.890625 C250.242518,74.890625 250.003751,74.8027353 249.842617,74.6269531 C249.681483,74.451171 249.600918,74.2314466 249.600918,73.9677734 Z M253.911928,81.1660156 C253.911928,79.707024 254.257628,78.5336958 254.949037,77.6459961 C255.640447,76.7582963 256.545711,76.3144531 257.664858,76.3144531 C258.778144,76.3144531 259.659972,76.6953087 260.310365,77.4570312 L260.310365,72.5 L261.936342,72.5 L261.936342,86 L260.442201,86 L260.3631,84.9804688 C259.712706,85.7773477 258.807442,86.1757812 257.647279,86.1757812 C256.545711,86.1757812 255.647771,85.7246139 254.953432,84.8222656 C254.259092,83.9199174 253.911928,82.7421948 253.911928,81.2890625 L253.911928,81.1660156 Z M255.537904,81.3505859 C255.537904,82.4287163 255.760558,83.2724579 256.205873,83.8818359 C256.651188,84.491214 257.266416,84.7958984 258.051576,84.7958984 C259.082831,84.7958984 259.835754,84.3330124 260.310365,83.4072266 L260.310365,79.0390625 C259.824035,78.1425736 259.076972,77.6943359 258.069154,77.6943359 C257.272275,77.6943359 256.651188,78.00195 256.205873,78.6171875 C255.760558,79.232425 255.537904,80.1435487 255.537904,81.3505859 Z M266.572547,86 L264.946571,86 L264.946571,76.4902344 L266.572547,76.4902344 L266.572547,86 Z M264.814735,73.9677734 C264.814735,73.7041002 264.8953,73.4814462 265.056434,73.2998047 C265.217568,73.1181632 265.456335,73.0273438 265.772743,73.0273438 C266.089151,73.0273438 266.329382,73.1181632 266.493446,73.2998047 C266.657509,73.4814462 266.73954,73.7041002 266.73954,73.9677734 C266.73954,74.2314466 266.657509,74.451171 266.493446,74.6269531 C266.329382,74.8027353 266.089151,74.890625 265.772743,74.890625 C265.456335,74.890625 265.217568,74.8027353 265.056434,74.6269531 C264.8953,74.451171 264.814735,74.2314466 264.814735,73.9677734 Z M274.117932,77.9492188 C273.871837,77.9082029 273.605239,77.8876953 273.318128,77.8876953 C272.251716,77.8876953 271.528091,78.3417923 271.147229,79.25 L271.147229,86 L269.521253,86 L269.521253,76.4902344 L271.103284,76.4902344 L271.129651,77.5888672 C271.662857,76.7392536 272.418709,76.3144531 273.397229,76.3144531 C273.713637,76.3144531 273.953869,76.3554683 274.117932,76.4375 L274.117932,77.9492188 Z M286.299523,83.4775391 C286.299523,83.0380837 286.133997,82.6967786 285.802941,82.4536133 C285.471885,82.210448 284.894742,82.0009774 284.071496,81.8251953 C283.248249,81.6494132 282.594936,81.4384778 282.111535,81.1923828 C281.628134,80.9462878 281.270716,80.653322 281.039269,80.3134766 C280.807823,79.9736311 280.692101,79.5693383 280.692101,79.1005859 C280.692101,78.3212852 281.021688,77.6621121 281.680871,77.1230469 C282.340054,76.5839817 283.18233,76.3144531 284.207726,76.3144531 C285.285856,76.3144531 286.160359,76.5927707 286.831261,77.1494141 C287.502163,77.7060575 287.837609,78.4179644 287.837609,79.2851562 L286.202843,79.2851562 C286.202843,78.8398415 286.01388,78.4560563 285.635949,78.1337891 C285.258017,77.8115218 284.781948,77.6503906 284.207726,77.6503906 C283.615926,77.6503906 283.15304,77.7792956 282.819054,78.0371094 C282.485068,78.2949232 282.318078,78.6318339 282.318078,79.0478516 C282.318078,79.4404317 282.47335,79.7363271 282.783898,79.9355469 C283.094446,80.1347666 283.655476,80.3251944 284.467003,80.5068359 C285.278531,80.6884775 285.936239,80.9052722 286.440148,81.1572266 C286.944057,81.4091809 287.317588,81.7124006 287.560753,82.0668945 C287.803919,82.4213885 287.9255,82.8535131 287.9255,83.3632812 C287.9255,84.2128949 287.585659,84.8940404 286.905968,85.4067383 C286.226277,85.9194362 285.34445,86.1757812 284.26046,86.1757812 C283.498738,86.1757812 282.824916,86.041017 282.238976,85.7714844 C281.653036,85.5019518 281.194544,85.1254907 280.863488,84.6420898 C280.532431,84.158689 280.366906,83.635745 280.366906,83.0732422 L281.992882,83.0732422 C282.022179,83.6181668 282.240439,84.0502914 282.647667,84.3696289 C283.054896,84.6889664 283.592488,84.8486328 284.26046,84.8486328 C284.875698,84.8486328 285.369345,84.7241223 285.741417,84.4750977 C286.11349,84.226073 286.299523,83.8935568 286.299523,83.4775391 Z M292.157408,86 L290.531431,86 L290.531431,76.4902344 L292.157408,76.4902344 L292.157408,86 Z M290.399596,73.9677734 C290.399596,73.7041002 290.480161,73.4814462 290.641295,73.2998047 C290.802428,73.1181632 291.041196,73.0273438 291.357603,73.0273438 C291.674011,73.0273438 291.914243,73.1181632 292.078306,73.2998047 C292.24237,73.4814462 292.3244,73.7041002 292.3244,73.9677734 C292.3244,74.2314466 292.24237,74.451171 292.078306,74.6269531 C291.914243,74.8027353 291.674011,74.890625 291.357603,74.890625 C291.041196,74.890625 290.802428,74.8027353 290.641295,74.6269531 C290.480161,74.451171 290.399596,74.2314466 290.399596,73.9677734 Z M302.115366,74.1875 L302.115366,76.4902344 L303.890756,76.4902344 L303.890756,77.7470703 L302.115366,77.7470703 L302.115366,83.6445312 C302.115366,84.0253925 302.194466,84.3110342 302.35267,84.5014648 C302.510874,84.6918955 302.780403,84.7871094 303.161264,84.7871094 C303.348765,84.7871094 303.606575,84.7519535 303.934702,84.6816406 L303.934702,86 C303.506965,86.1171881 303.090954,86.1757812 302.686655,86.1757812 C301.960089,86.1757812 301.412243,85.9560569 301.0431,85.5166016 C300.673958,85.0771462 300.489389,84.453129 300.489389,83.6445312 L300.489389,77.7470703 L298.757944,77.7470703 L298.757944,76.4902344 L300.489389,76.4902344 L300.489389,74.1875 L302.115366,74.1875 Z M310.082626,86.1757812 C308.793557,86.1757812 307.744739,85.7524456 306.936141,84.9057617 C306.127544,84.0590778 305.723251,82.9267649 305.723251,81.5087891 L305.723251,81.2099609 C305.723251,80.2665968 305.903425,79.4243201 306.263778,78.6831055 C306.624132,77.9418908 307.128033,77.3618185 307.775497,76.9428711 C308.422961,76.5239237 309.124614,76.3144531 309.880477,76.3144531 C311.116812,76.3144531 312.07774,76.7216756 312.76329,77.5361328 C313.44884,78.35059 313.79161,79.516594 313.79161,81.0341797 L313.79161,81.7109375 L307.349227,81.7109375 C307.372665,82.6484422 307.646588,83.4057588 308.171005,83.9829102 C308.695421,84.5600615 309.361919,84.8486328 310.170516,84.8486328 C310.744738,84.8486328 311.231061,84.7314465 311.629501,84.4970703 C312.02794,84.2626941 312.37657,83.9521504 312.675399,83.5654297 L313.668563,84.3388672 C312.871684,85.5634827 311.676384,86.1757812 310.082626,86.1757812 Z M309.880477,77.6503906 C309.224224,77.6503906 308.673448,77.8891578 308.228134,78.3666992 C307.782819,78.8442407 307.507431,79.5136676 307.401962,80.375 L312.165634,80.375 L312.165634,80.2519531 C312.118758,79.4257771 311.896104,78.7856468 311.497665,78.331543 C311.099225,77.8774391 310.560168,77.6503906 309.880477,77.6503906 Z M213.746013,105.848633 C214.326094,105.848633 214.832924,105.672853 215.26652,105.321289 C215.700116,104.969725 215.940348,104.530276 215.987223,104.00293 L217.525309,104.00293 C217.496012,104.547854 217.308514,105.066404 216.962809,105.558594 C216.617105,106.050784 216.155683,106.443358 215.578532,106.736328 C215.001381,107.029298 214.390547,107.175781 213.746013,107.175781 C212.451084,107.175781 211.421309,106.743657 210.656657,105.879395 C209.892005,105.015132 209.509684,103.833015 209.509684,102.333008 L209.509684,102.060547 C209.509684,101.134761 209.679605,100.311527 210.01945,99.5908203 C210.359296,98.8701136 210.847084,98.3105489 211.482829,97.9121094 C212.118574,97.5136699 212.870032,97.3144531 213.737223,97.3144531 C214.803635,97.3144531 215.689857,97.6337859 216.395915,98.2724609 C217.101973,98.911136 217.478434,99.7402293 217.525309,100.759766 L215.987223,100.759766 C215.940348,100.144528 215.70744,99.6391621 215.288493,99.2436523 C214.869546,98.8481426 214.352461,98.6503906 213.737223,98.6503906 C212.911047,98.6503906 212.270917,98.9477509 211.816813,99.5424805 C211.36271,100.13721 211.135661,100.997065 211.135661,102.12207 L211.135661,102.429688 C211.135661,103.525396 211.361245,104.369138 211.812419,104.960938 C212.263593,105.552737 212.908118,105.848633 213.746013,105.848633 Z M219.269913,102.157227 C219.269913,101.225581 219.453017,100.387699 219.81923,99.6435547 C220.185442,98.8994103 220.695203,98.3251973 221.348527,97.9208984 C222.00185,97.5165995 222.747448,97.3144531 223.585343,97.3144531 C224.880271,97.3144531 225.927624,97.7626908 226.727433,98.6591797 C227.527241,99.5556685 227.92714,100.748039 227.92714,102.236328 L227.92714,102.350586 C227.92714,103.276372 227.749896,104.10693 227.395402,104.842285 C227.040908,105.57764 226.534077,106.150389 225.874894,106.560547 C225.215711,106.970705 224.458394,107.175781 223.602921,107.175781 C222.313852,107.175781 221.269429,106.727544 220.46962,105.831055 C219.669812,104.934566 219.269913,103.748054 219.269913,102.271484 L219.269913,102.157227 Z M220.904679,102.350586 C220.904679,103.405279 221.149305,104.25195 221.638566,104.890625 C222.127826,105.5293 222.782604,105.848633 223.602921,105.848633 C224.429097,105.848633 225.085341,105.524906 225.571671,104.877441 C226.058002,104.229977 226.301163,103.323248 226.301163,102.157227 C226.301163,101.114253 226.053607,100.269046 225.558487,99.621582 C225.063368,98.9741179 224.40566,98.6503906 223.585343,98.6503906 C222.782605,98.6503906 222.13515,98.9697234 221.64296,99.6083984 C221.15077,100.247074 220.904679,101.161127 220.904679,102.350586 Z M231.851431,97.4902344 L231.904166,98.6855469 C232.630732,97.7714798 233.579941,97.3144531 234.751822,97.3144531 C236.761597,97.3144531 237.775259,98.4482308 237.792837,100.71582 L237.792837,107 L236.166861,107 L236.166861,100.707031 C236.161001,100.021481 236.004265,99.5146501 235.696646,99.1865234 C235.389027,98.8583968 234.910028,98.6943359 234.259634,98.6943359 C233.732288,98.6943359 233.269402,98.8349595 232.870962,99.1162109 C232.472523,99.3974623 232.161979,99.7665993 231.939322,100.223633 L231.939322,107 L230.313345,107 L230.313345,97.4902344 L231.851431,97.4902344 Z M243.729824,104.793945 L246.085293,97.4902344 L247.746426,97.4902344 L244.336269,107 L243.097012,107 L239.651699,97.4902344 L241.312832,97.4902344 L243.729824,104.793945 Z M251.424623,107 L249.798647,107 L249.798647,97.4902344 L251.424623,97.4902344 L251.424623,107 Z M249.666811,94.9677734 C249.666811,94.7041002 249.747376,94.4814462 249.90851,94.2998047 C250.069644,94.1181632 250.308411,94.0273438 250.624819,94.0273438 C250.941226,94.0273438 251.181458,94.1181632 251.345522,94.2998047 C251.509585,94.4814462 251.591615,94.7041002 251.591615,94.9677734 C251.591615,95.2314466 251.509585,95.451171 251.345522,95.6269531 C251.181458,95.8027353 250.941226,95.890625 250.624819,95.890625 C250.308411,95.890625 250.069644,95.8027353 249.90851,95.6269531 C249.747376,95.451171 249.666811,95.2314466 249.666811,94.9677734 Z M258.319618,107.175781 C257.030549,107.175781 255.981731,106.752446 255.173133,105.905762 C254.364536,105.059078 253.960243,103.926765 253.960243,102.508789 L253.960243,102.209961 C253.960243,101.266597 254.140417,100.42432 254.50077,99.6831055 C254.861123,98.9418908 255.365025,98.3618185 256.012489,97.9428711 C256.659953,97.5239237 257.361606,97.3144531 258.117469,97.3144531 C259.353804,97.3144531 260.314731,97.7216756 261.000282,98.5361328 C261.685832,99.35059 262.028602,100.516594 262.028602,102.03418 L262.028602,102.710938 L255.586219,102.710938 C255.609657,103.648442 255.88358,104.405759 256.407997,104.98291 C256.932413,105.560061 257.598911,105.848633 258.407508,105.848633 C258.98173,105.848633 259.468053,105.731446 259.866493,105.49707 C260.264932,105.262694 260.613561,104.95215 260.912391,104.56543 L261.905555,105.338867 C261.108676,106.563483 259.913376,107.175781 258.319618,107.175781 Z M258.117469,98.6503906 C257.461216,98.6503906 256.91044,98.8891578 256.465125,99.3666992 C256.019811,99.8442407 255.744423,100.513668 255.638954,101.375 L260.402625,101.375 L260.402625,101.251953 C260.35575,100.425777 260.133096,99.7856468 259.734657,99.331543 C259.336217,98.8774391 258.79716,98.6503906 258.117469,98.6503906 Z M265.79469,97.4902344 L265.847425,98.6855469 C266.573991,97.7714798 267.5232,97.3144531 268.695081,97.3144531 C270.704857,97.3144531 271.718518,98.4482308 271.736097,100.71582 L271.736097,107 L270.11012,107 L270.11012,100.707031 C270.104261,100.021481 269.947524,99.5146501 269.639905,99.1865234 C269.332286,98.8583968 268.853287,98.6943359 268.202893,98.6943359 C267.675547,98.6943359 267.212661,98.8349595 266.814222,99.1162109 C266.415782,99.3974623 266.105238,99.7665993 265.882581,100.223633 L265.882581,107 L264.256604,107 L264.256604,97.4902344 L265.79469,97.4902344 Z M278.481677,107.175781 C277.192608,107.175781 276.14379,106.752446 275.335193,105.905762 C274.526595,105.059078 274.122302,103.926765 274.122302,102.508789 L274.122302,102.209961 C274.122302,101.266597 274.302476,100.42432 274.662829,99.6831055 C275.023183,98.9418908 275.527084,98.3618185 276.174548,97.9428711 C276.822012,97.5239237 277.523665,97.3144531 278.279528,97.3144531 C279.515863,97.3144531 280.476791,97.7216756 281.162341,98.5361328 C281.847891,99.35059 282.190661,100.516594 282.190661,102.03418 L282.190661,102.710938 L275.748278,102.710938 C275.771716,103.648442 276.045639,104.405759 276.570056,104.98291 C277.094473,105.560061 277.76097,105.848633 278.569568,105.848633 C279.143789,105.848633 279.630112,105.731446 280.028552,105.49707 C280.426991,105.262694 280.775621,104.95215 281.07445,104.56543 L282.067614,105.338867 C281.270735,106.563483 280.075435,107.175781 278.481677,107.175781 Z M278.279528,98.6503906 C277.623275,98.6503906 277.072499,98.8891578 276.627185,99.3666992 C276.18187,99.8442407 275.906482,100.513668 275.801013,101.375 L280.564685,101.375 L280.564685,101.251953 C280.517809,100.425777 280.295155,99.7856468 279.896716,99.331543 C279.498276,98.8774391 278.959219,98.6503906 278.279528,98.6503906 Z M288.791197,102.157227 C288.791197,101.225581 288.974301,100.387699 289.340513,99.6435547 C289.706726,98.8994103 290.216487,98.3251973 290.86981,97.9208984 C291.523134,97.5165995 292.268732,97.3144531 293.106627,97.3144531 C294.401555,97.3144531 295.448908,97.7626908 296.248717,98.6591797 C297.048525,99.5556685 297.448424,100.748039 297.448424,102.236328 L297.448424,102.350586 C297.448424,103.276372 297.271179,104.10693 296.916685,104.842285 C296.562191,105.57764 296.055361,106.150389 295.396178,106.560547 C294.736995,106.970705 293.979678,107.175781 293.124205,107.175781 C291.835136,107.175781 290.790713,106.727544 289.990904,105.831055 C289.191095,104.934566 288.791197,103.748054 288.791197,102.271484 L288.791197,102.157227 Z M290.425963,102.350586 C290.425963,103.405279 290.670589,104.25195 291.159849,104.890625 C291.64911,105.5293 292.303888,105.848633 293.124205,105.848633 C293.950381,105.848633 294.606624,105.524906 295.092955,104.877441 C295.579285,104.229977 295.822447,103.323248 295.822447,102.157227 C295.822447,101.114253 295.574891,100.269046 295.079771,99.621582 C294.584652,98.9741179 293.926943,98.6503906 293.106627,98.6503906 C292.303888,98.6503906 291.656434,98.9697234 291.164244,99.6083984 C290.672054,100.247074 290.425963,101.161127 290.425963,102.350586 Z M306.175913,97.4902344 L306.228647,98.6855469 C306.955213,97.7714798 307.904422,97.3144531 309.076303,97.3144531 C311.086079,97.3144531 312.099741,98.4482308 312.117319,100.71582 L312.117319,107 L310.491342,107 L310.491342,100.707031 C310.485483,100.021481 310.328746,99.5146501 310.021127,99.1865234 C309.713509,98.8583968 309.23451,98.6943359 308.584116,98.6943359 C308.056769,98.6943359 307.593883,98.8349595 307.195444,99.1162109 C306.797004,99.3974623 306.486461,99.7665993 306.263803,100.223633 L306.263803,107 L304.637827,107 L304.637827,97.4902344 L306.175913,97.4902344 Z M314.485946,102.157227 C314.485946,101.225581 314.66905,100.387699 315.035263,99.6435547 C315.401475,98.8994103 315.911236,98.3251973 316.564559,97.9208984 C317.217883,97.5165995 317.963481,97.3144531 318.801376,97.3144531 C320.096304,97.3144531 321.143657,97.7626908 321.943466,98.6591797 C322.743274,99.5556685 323.143173,100.748039 323.143173,102.236328 L323.143173,102.350586 C323.143173,103.276372 322.965928,104.10693 322.611434,104.842285 C322.25694,105.57764 321.75011,106.150389 321.090927,106.560547 C320.431744,106.970705 319.674427,107.175781 318.818954,107.175781 C317.529885,107.175781 316.485462,106.727544 315.685653,105.831055 C314.885844,104.934566 314.485946,103.748054 314.485946,102.271484 L314.485946,102.157227 Z M316.120712,102.350586 C316.120712,103.405279 316.365338,104.25195 316.854598,104.890625 C317.343859,105.5293 317.998637,105.848633 318.818954,105.848633 C319.64513,105.848633 320.301373,105.524906 320.787704,104.877441 C321.274034,104.229977 321.517196,103.323248 321.517196,102.157227 C321.517196,101.114253 321.26964,100.269046 320.77452,99.621582 C320.279401,98.9741179 319.621692,98.6503906 318.801376,98.6503906 C317.998637,98.6503906 317.351183,98.9697234 316.858993,99.6083984 C316.366803,100.247074 316.120712,101.161127 316.120712,102.350586 Z M206.264361,123.350586 C206.264361,124.797859 205.933309,125.963863 205.271197,126.848633 C204.609084,127.733403 203.712609,128.175781 202.581744,128.175781 C201.427441,128.175781 200.519247,127.809574 199.857134,127.077148 L199.857134,131.65625 L198.231158,131.65625 L198.231158,118.490234 L199.716509,118.490234 L199.795611,119.544922 C200.457723,118.724605 201.377636,118.314453 202.555376,118.314453 C203.69796,118.314453 204.60176,118.745113 205.266802,119.606445 C205.931845,120.467778 206.264361,121.666008 206.264361,123.201172 L206.264361,123.350586 Z M204.638384,123.166016 C204.638384,122.093745 204.409871,121.247073 203.952837,120.625977 C203.495804,120.00488 202.868857,119.694336 202.071978,119.694336 C201.087598,119.694336 200.349324,120.130855 199.857134,121.003906 L199.857134,125.547852 C200.343465,126.415043 201.087598,126.848633 202.089556,126.848633 C202.868857,126.848633 203.48848,126.539554 203.948443,125.921387 C204.408406,125.30322 204.638384,124.384772 204.638384,123.166016 Z M214.548027,128 C214.454277,127.812499 214.378105,127.478518 214.319511,126.998047 C213.563648,127.783207 212.661314,128.175781 211.61248,128.175781 C210.674975,128.175781 209.90594,127.910647 209.305351,127.380371 C208.704762,126.850095 208.404472,126.177738 208.404472,125.363281 C208.404472,124.373042 208.780933,123.604007 209.533867,123.056152 C210.2868,122.508298 211.345872,122.234375 212.711113,122.234375 L214.293144,122.234375 L214.293144,121.487305 C214.293144,120.918942 214.123224,120.46631 213.783379,120.129395 C213.443533,119.792479 212.942562,119.624023 212.280449,119.624023 C211.700368,119.624023 211.214045,119.770506 210.821465,120.063477 C210.428884,120.356447 210.232597,120.710935 210.232597,121.126953 L208.597832,121.126953 C208.597832,120.652341 208.766287,120.19385 209.103203,119.751465 C209.440119,119.30908 209.897145,118.958986 210.474297,118.701172 C211.051448,118.443358 211.685719,118.314453 212.377129,118.314453 C213.472837,118.314453 214.331227,118.588376 214.952324,119.13623 C215.573421,119.684085 215.895683,120.438472 215.919121,121.399414 L215.919121,125.776367 C215.919121,126.649418 216.030448,127.343747 216.253105,127.859375 L216.253105,128 L214.548027,128 Z M211.849785,126.760742 C212.359553,126.760742 212.842947,126.628908 213.29998,126.365234 C213.757014,126.101561 214.088065,125.758791 214.293144,125.336914 L214.293144,123.385742 L213.01873,123.385742 C211.026533,123.385742 210.030449,123.968744 210.030449,125.134766 C210.030449,125.644534 210.200369,126.042967 210.540215,126.330078 C210.88006,126.617189 211.316579,126.760742 211.849785,126.760742 Z M218.428373,123.166016 C218.428373,121.683586 218.771143,120.504399 219.456693,119.628418 C220.142244,118.752437 221.050438,118.314453 222.181303,118.314453 C223.341465,118.314453 224.246729,118.724605 224.897123,119.544922 L224.976225,118.490234 L226.461576,118.490234 L226.461576,127.771484 C226.461576,129.001959 226.096834,129.971676 225.367338,130.680664 C224.637842,131.389652 223.657871,131.744141 222.427397,131.744141 C221.741846,131.744141 221.070954,131.597658 220.414701,131.304688 C219.758448,131.011717 219.257476,130.610354 218.911772,130.100586 L219.755522,129.125 C220.452791,129.986332 221.305321,130.416992 222.313139,130.416992 C223.104158,130.416992 223.720851,130.194338 224.163236,129.749023 C224.605621,129.303709 224.826811,128.676762 224.826811,127.868164 L224.826811,127.050781 C224.176417,127.800785 223.28873,128.175781 222.163725,128.175781 C221.050438,128.175781 220.149568,127.727544 219.461088,126.831055 C218.772608,125.934566 218.428373,124.712898 218.428373,123.166016 Z M220.063139,123.350586 C220.063139,124.422857 220.282863,125.265134 220.722318,125.877441 C221.161774,126.489749 221.777002,126.795898 222.568022,126.795898 C223.593417,126.795898 224.346339,126.330083 224.826811,125.398438 L224.826811,121.056641 C224.328761,120.148433 223.581698,119.694336 222.5856,119.694336 C221.79458,119.694336 221.176422,120.00195 220.731107,120.617188 C220.285793,121.232425 220.063139,122.143549 220.063139,123.350586 Z M235.131961,128 C235.038211,127.812499 234.96204,127.478518 234.903446,126.998047 C234.147583,127.783207 233.245248,128.175781 232.196414,128.175781 C231.25891,128.175781 230.489874,127.910647 229.889285,127.380371 C229.288697,126.850095 228.988407,126.177738 228.988407,125.363281 C228.988407,124.373042 229.364868,123.604007 230.117801,123.056152 C230.870735,122.508298 231.929806,122.234375 233.295047,122.234375 L234.877078,122.234375 L234.877078,121.487305 C234.877078,120.918942 234.707158,120.46631 234.367313,120.129395 C234.027467,119.792479 233.526496,119.624023 232.864383,119.624023 C232.284302,119.624023 231.797979,119.770506 231.405399,120.063477 C231.012819,120.356447 230.816532,120.710935 230.816532,121.126953 L229.181766,121.126953 C229.181766,120.652341 229.350221,120.19385 229.687137,119.751465 C230.024053,119.30908 230.481079,118.958986 231.058231,118.701172 C231.635382,118.443358 232.269653,118.314453 232.961063,118.314453 C234.056771,118.314453 234.915161,118.588376 235.536258,119.13623 C236.157355,119.684085 236.479617,120.438472 236.503055,121.399414 L236.503055,125.776367 C236.503055,126.649418 236.614382,127.343747 236.837039,127.859375 L236.837039,128 L235.131961,128 Z M232.433719,126.760742 C232.943487,126.760742 233.426881,126.628908 233.883914,126.365234 C234.340948,126.101561 234.671999,125.758791 234.877078,125.336914 L234.877078,123.385742 L233.602664,123.385742 C231.610467,123.385742 230.614383,123.968744 230.614383,125.134766 C230.614383,125.644534 230.784303,126.042967 231.124149,126.330078 C231.463994,126.617189 231.900513,126.760742 232.433719,126.760742 Z M243.995706,119.949219 C243.749611,119.908203 243.483012,119.887695 243.195901,119.887695 C242.129489,119.887695 241.405864,120.341792 241.025003,121.25 L241.025003,128 L239.399026,128 L239.399026,118.490234 L240.981057,118.490234 L241.007424,119.588867 C241.54063,118.739254 242.296482,118.314453 243.275003,118.314453 C243.59141,118.314453 243.831642,118.355468 243.995706,118.4375 L243.995706,119.949219 Z M254.586476,128.175781 C253.297407,128.175781 252.248589,127.752446 251.439992,126.905762 C250.631394,126.059078 250.227101,124.926765 250.227101,123.508789 L250.227101,123.209961 C250.227101,122.266597 250.407275,121.42432 250.767628,120.683105 C251.127982,119.941891 251.631883,119.361819 252.279347,118.942871 C252.926811,118.523924 253.628464,118.314453 254.384327,118.314453 C255.620662,118.314453 256.58159,118.721676 257.26714,119.536133 C257.95269,120.35059 258.29546,121.516594 258.29546,123.03418 L258.29546,123.710938 L251.853077,123.710938 C251.876515,124.648442 252.150438,125.405759 252.674855,125.98291 C253.199272,126.560061 253.865769,126.848633 254.674367,126.848633 C255.248588,126.848633 255.734911,126.731446 256.133351,126.49707 C256.53179,126.262694 256.88042,125.95215 257.179249,125.56543 L258.172413,126.338867 C257.375534,127.563483 256.180234,128.175781 254.586476,128.175781 Z M254.384327,119.650391 C253.728074,119.650391 253.177298,119.889158 252.731984,120.366699 C252.286669,120.844241 252.011281,121.513668 251.905812,122.375 L256.669484,122.375 L256.669484,122.251953 C256.622608,121.425777 256.399954,120.785647 256.001515,120.331543 C255.603075,119.877439 255.064018,119.650391 254.384327,119.650391 Z M262.061549,118.490234 L262.114283,119.685547 C262.840849,118.77148 263.790058,118.314453 264.961939,118.314453 C266.971715,118.314453 267.985377,119.448231 268.002955,121.71582 L268.002955,128 L266.376978,128 L266.376978,121.707031 C266.371119,121.021481 266.214382,120.51465 265.906763,120.186523 C265.599145,119.858397 265.120146,119.694336 264.469752,119.694336 C263.942405,119.694336 263.479519,119.83496 263.08108,120.116211 C262.68264,120.397462 262.372096,120.766599 262.149439,121.223633 L262.149439,128 L260.523463,128 L260.523463,118.490234 L262.061549,118.490234 Z M279.419897,126.848633 C279.999978,126.848633 280.506809,126.672853 280.940405,126.321289 C281.374001,125.969725 281.614233,125.530276 281.661108,125.00293 L283.199194,125.00293 C283.169897,125.547854 282.982399,126.066404 282.636694,126.558594 C282.290989,127.050784 281.829568,127.443358 281.252416,127.736328 C280.675265,128.029298 280.064431,128.175781 279.419897,128.175781 C278.124968,128.175781 277.095194,127.743657 276.330541,126.879395 C275.565889,126.015132 275.183569,124.833015 275.183569,123.333008 L275.183569,123.060547 C275.183569,122.134761 275.353489,121.311527 275.693334,120.59082 C276.03318,119.870114 276.520968,119.310549 277.156713,118.912109 C277.792459,118.51367 278.543916,118.314453 279.411108,118.314453 C280.477519,118.314453 281.363741,118.633786 282.069799,119.272461 C282.775857,119.911136 283.152318,120.740229 283.199194,121.759766 L281.661108,121.759766 C281.614233,121.144528 281.381325,120.639162 280.962377,120.243652 C280.54343,119.848143 280.026345,119.650391 279.411108,119.650391 C278.584932,119.650391 277.944801,119.947751 277.490698,120.54248 C277.036594,121.13721 276.809545,121.997065 276.809545,123.12207 L276.809545,123.429688 C276.809545,124.525396 277.035129,125.369138 277.486303,125.960938 C277.937477,126.552737 278.582002,126.848633 279.419897,126.848633 Z M291.245555,127.05957 C290.61274,127.803715 289.684038,128.175781 288.459423,128.175781 C287.445746,128.175781 286.673781,127.881351 286.143505,127.29248 C285.613228,126.70361 285.345165,125.832037 285.339305,124.677734 L285.339305,118.490234 L286.965282,118.490234 L286.965282,124.633789 C286.965282,126.075203 287.551214,126.795898 288.723094,126.795898 C289.965288,126.795898 290.791452,126.333012 291.20161,125.407227 L291.20161,118.490234 L292.827587,118.490234 L292.827587,128 L291.280712,128 L291.245555,127.05957 Z M295.213792,123.157227 C295.213792,122.225581 295.396896,121.387699 295.763108,120.643555 C296.129321,119.89941 296.639082,119.325197 297.292405,118.920898 C297.945729,118.5166 298.691327,118.314453 299.529222,118.314453 C300.82415,118.314453 301.871503,118.762691 302.671312,119.65918 C303.47112,120.555669 303.871019,121.748039 303.871019,123.236328 L303.871019,123.350586 C303.871019,124.276372 303.693774,125.10693 303.33928,125.842285 C302.984786,126.57764 302.477955,127.150389 301.818772,127.560547 C301.159589,127.970705 300.402273,128.175781 299.5468,128.175781 C298.257731,128.175781 297.213308,127.727544 296.413499,126.831055 C295.61369,125.934566 295.213792,124.748054 295.213792,123.271484 L295.213792,123.157227 Z M296.848558,123.350586 C296.848558,124.405279 297.093184,125.25195 297.582444,125.890625 C298.071705,126.5293 298.726483,126.848633 299.5468,126.848633 C300.372976,126.848633 301.029219,126.524906 301.51555,125.877441 C302.00188,125.229977 302.245042,124.323248 302.245042,123.157227 C302.245042,122.114253 301.997486,121.269046 301.502366,120.621582 C301.007247,119.974118 300.349538,119.650391 299.529222,119.650391 C298.726483,119.650391 298.079029,119.969723 297.586839,120.608398 C297.094649,121.247074 296.848558,122.161127 296.848558,123.350586 Z M308.463279,116.1875 L308.463279,118.490234 L310.238669,118.490234 L310.238669,119.74707 L308.463279,119.74707 L308.463279,125.644531 C308.463279,126.025393 308.542379,126.311034 308.700583,126.501465 C308.858787,126.691895 309.128316,126.787109 309.509177,126.787109 C309.696678,126.787109 309.954488,126.751953 310.282615,126.681641 L310.282615,128 C309.854878,128.117188 309.438867,128.175781 309.034568,128.175781 C308.308002,128.175781 307.760155,127.956057 307.391013,127.516602 C307.021871,127.077146 306.837302,126.453129 306.837302,125.644531 L306.837302,119.74707 L305.105857,119.74707 L305.105857,118.490234 L306.837302,118.490234 L306.837302,116.1875 L308.463279,116.1875 Z M318.355343,128 C318.261593,127.812499 318.185422,127.478518 318.126828,126.998047 C317.370965,127.783207 316.46863,128.175781 315.419797,128.175781 C314.482292,128.175781 313.713257,127.910647 313.112668,127.380371 C312.512079,126.850095 312.211789,126.177738 312.211789,125.363281 C312.211789,124.373042 312.58825,123.604007 313.341183,123.056152 C314.094117,122.508298 315.153188,122.234375 316.518429,122.234375 L318.100461,122.234375 L318.100461,121.487305 C318.100461,120.918942 317.93054,120.46631 317.590695,120.129395 C317.25085,119.792479 316.749878,119.624023 316.087765,119.624023 C315.507684,119.624023 315.021361,119.770506 314.628781,120.063477 C314.236201,120.356447 314.039914,120.710935 314.039914,121.126953 L312.405148,121.126953 C312.405148,120.652341 312.573603,120.19385 312.910519,119.751465 C313.247435,119.30908 313.704462,118.958986 314.281613,118.701172 C314.858764,118.443358 315.493035,118.314453 316.184445,118.314453 C317.280154,118.314453 318.138543,118.588376 318.75964,119.13623 C319.380737,119.684085 319.703,120.438472 319.726437,121.399414 L319.726437,125.776367 C319.726437,126.649418 319.837764,127.343747 320.060422,127.859375 L320.060422,128 L318.355343,128 Z M315.657101,126.760742 C316.166869,126.760742 316.650263,126.628908 317.107297,126.365234 C317.56433,126.101561 317.895381,125.758791 318.100461,125.336914 L318.100461,123.385742 L316.826047,123.385742 C314.833849,123.385742 313.837765,123.968744 313.837765,125.134766 C313.837765,125.644534 314.007685,126.042967 314.347531,126.330078 C314.687376,126.617189 315.123895,126.760742 315.657101,126.760742 Z M328.159518,125.477539 C328.159518,125.038084 327.993992,124.696779 327.662936,124.453613 C327.331879,124.210448 326.754737,124.000977 325.93149,123.825195 C325.108244,123.649413 324.45493,123.438478 323.971529,123.192383 C323.488128,122.946288 323.13071,122.653322 322.899264,122.313477 C322.667817,121.973631 322.552096,121.569338 322.552096,121.100586 C322.552096,120.321285 322.881682,119.662112 323.540865,119.123047 C324.200048,118.583982 325.042325,118.314453 326.067721,118.314453 C327.145851,118.314453 328.020354,118.592771 328.691256,119.149414 C329.362158,119.706057 329.697603,120.417964 329.697603,121.285156 L328.062838,121.285156 C328.062838,120.839842 327.873875,120.456056 327.495943,120.133789 C327.118012,119.811522 326.641942,119.650391 326.067721,119.650391 C325.475921,119.650391 325.013035,119.779296 324.679049,120.037109 C324.345063,120.294923 324.178072,120.631834 324.178072,121.047852 C324.178072,121.440432 324.333344,121.736327 324.643893,121.935547 C324.954441,122.134767 325.515471,122.325194 326.326998,122.506836 C327.138526,122.688477 327.796234,122.905272 328.300143,123.157227 C328.804051,123.409181 329.177583,123.712401 329.420748,124.066895 C329.663913,124.421388 329.785494,124.853513 329.785494,125.363281 C329.785494,126.212895 329.445654,126.89404 328.765963,127.406738 C328.086272,127.919436 327.204445,128.175781 326.120455,128.175781 C325.358732,128.175781 324.684911,128.041017 324.098971,127.771484 C323.51303,127.501952 323.054539,127.125491 322.723482,126.64209 C322.392426,126.158689 322.2269,125.635745 322.2269,125.073242 L323.852877,125.073242 C323.882174,125.618167 324.100433,126.050291 324.507662,126.369629 C324.914891,126.688966 325.452483,126.848633 326.120455,126.848633 C326.735693,126.848633 327.22934,126.724122 327.601412,126.475098 C327.973484,126.226073 328.159518,125.893557 328.159518,125.477539 Z M334.070137,124.387695 L332.602364,124.387695 L332.488106,115.203125 L334.193184,115.203125 L334.070137,124.387695 Z M332.426582,127.182617 C332.426582,126.918944 332.507148,126.697755 332.668282,126.519043 C332.829415,126.340331 333.068182,126.250977 333.38459,126.250977 C333.700998,126.250977 333.94123,126.340331 334.105293,126.519043 C334.269357,126.697755 334.351387,126.918944 334.351387,127.182617 C334.351387,127.44629 334.269357,127.66455 334.105293,127.837402 C333.94123,128.010255 333.700998,128.09668 333.38459,128.09668 C333.068182,128.09668 332.829415,128.010255 332.668282,127.837402 C332.507148,127.66455 332.426582,127.44629 332.426582,127.182617 Z" id="Te-ayudar-a-decidi" fill="#2E2E2E"></path>
        </g>
    </g>
</svg>