<?xml version="1.0" encoding="UTF-8"?>
<svg width="32px" height="28px" viewBox="0 0 32 28" version="1.1" xmlns="http://www.w3.org/2000/svg" xmlns:xlink="http://www.w3.org/1999/xlink">
    <!-- Generator: Sketch 52.3 (67297) - http://www.bohemiancoding.com/sketch -->
    <title>down-arrow</title>
    <desc>Created with Sketch.</desc>
    <g id="Page-1" stroke="none" stroke-width="1" fill="none" fill-rule="evenodd">
        <g id="1" transform="translate(-24.000000, -23.000000)" fill="#FFFFFF">
            <g id="down-arrow" transform="translate(40.000000, 37.000000) rotate(90.000000) translate(-40.000000, -37.000000) translate(26.000000, 21.000000)">
                <path d="M27.948685,17.7393532 C27.8445833,17.4901244 27.6016583,17.3274915 27.3320824,17.3274915 L20.0196229,17.3274915 L20.0196229,0.66646361 C20.0196229,0.298587193 19.7206432,0 19.3522832,0 L8.67516029,0 C8.30680027,0 8.00782055,0.298587193 8.00782055,0.66646361 L8.00782055,17.327554 L0.667333735,17.327554 C0.397757762,17.327554 0.154832836,17.4901869 0.0507310908,17.7381036 C-0.0520568703,17.9873324 0.00399791556,18.2739236 0.194871969,18.4645471 L13.5078836,31.8040658 C13.6333187,31.9293362 13.8028594,32 13.9803454,32 C14.1578313,32 14.327372,31.9293362 14.4528071,31.8053779 L27.8045441,18.4658591 C27.9954182,18.2751732 28.0527868,17.9886444 27.948685,17.7393532 Z" id="Path"></path>
            </g>
        </g>
    </g>
</svg>