<?xml version="1.0" encoding="UTF-8"?>
<svg width="31px" height="24px" viewBox="0 0 31 24" version="1.1" xmlns="http://www.w3.org/2000/svg" xmlns:xlink="http://www.w3.org/1999/xlink">
    <!-- Generator: Sketch 52.3 (67297) - http://www.bohemiancoding.com/sketch -->
    <title>envelope</title>
    <desc>Created with Sketch.</desc>
    <g id="Page-1" stroke="none" stroke-width="1" fill="none" fill-rule="evenodd">
        <g id="1" transform="translate(-353.000000, -25.000000)" fill="#FFFFFF">
            <g id="envelope" transform="translate(353.000000, 25.000000)">
                <path d="M2.97538827,7.2659411 C3.3675341,7.53374694 4.54960655,8.32913085 6.52166622,9.65168236 C8.49378648,10.9742339 10.0045658,11.9925645 11.0540649,12.706733 C11.1693698,12.7850165 11.4143398,12.9551878 11.7890959,13.2174816 C12.1639127,13.4799512 12.4753511,13.6920497 12.7231689,13.8538356 C12.9711684,14.0155629 13.2709733,14.196993 13.6228866,14.3978327 C13.9746788,14.5984965 14.3062941,14.7494341 14.6176719,14.8493556 C14.9291103,14.9500979 15.2174029,15 15.4826103,15 L15.5,15 L15.5174502,15 C15.7826576,15 16.0710714,14.9500393 16.3825099,14.8493556 C16.6937665,14.7494341 17.0256848,14.5983206 17.377174,14.3978327 C17.7288449,14.1967584 18.0286498,14.0155042 18.2766493,13.8538356 C18.5246489,13.6920497 18.8358449,13.4799512 19.2107829,13.2174816 C19.5854785,12.9549533 19.8307514,12.7850165 19.9460563,12.706733 C21.0068859,11.9925645 23.7057968,10.1787913 28.0419408,7.26558927 C28.883794,6.69661182 29.5871359,6.01006251 30.1521482,5.20641045 C30.7175847,4.40311023 31,3.56040438 31,2.67876201 C31,1.94201743 30.7259463,1.3113514 30.1780813,0.786822569 C29.6302768,0.262176457 28.9814669,0 28.2320758,0 L2.76774245,0 C1.87977937,0 1.19643255,0.290147419 0.717823176,0.870442258 C0.239274392,1.45085438 0,2.1763402 0,3.0468411 C0,3.74998534 0.317255182,4.51194483 0.951462592,5.33225046 C1.58560941,6.15261473 2.26047347,6.79723691 2.97538827,7.2659411 Z" id="Path"></path>
                <path d="M29.2698235,8.5502548 C25.4874899,11.1873357 22.6154757,13.2367828 20.6551746,14.6981591 C19.9978226,15.1969145 19.4645611,15.586257 19.0550264,15.8652505 C18.6454917,16.1444311 18.1008391,16.4295412 17.4202808,16.7204558 C16.7399649,17.0118074 16.1059405,17.1570462 15.5176623,17.1570462 L15.5000303,17.1570462 L15.4826407,17.1570462 C14.8944837,17.1570462 14.2600957,17.0118074 13.5797798,16.7204558 C12.8994639,16.4295412 12.3544477,16.1444311 11.9450342,15.8652505 C11.5357419,15.586257 11.0022985,15.1969145 10.3450072,14.6981591 C8.78799985,13.5221425 5.92216595,11.4725706 1.74738432,8.5502548 C1.08985061,8.09912179 0.507449763,7.58201651 0,7 L0,21.1484624 C0,21.9330144 0.270902435,22.6039094 0.813010259,23.1622707 C1.3549969,23.7208193 2.00671388,24 2.76791882,24 L28.232263,24 C28.9932861,24 29.6449425,23.7208193 30.1869897,23.1622707 C30.7292187,22.6037221 31,21.9330768 31,21.1484624 L31,7 C30.5040019,7.56997048 29.927539,8.08707576 29.2698235,8.5502548 Z" id="Path"></path>
            </g>
        </g>
    </g>
</svg>